Coordinates
version=1
nRows=27
nColumns=12
inDegrees=yes

Units are S.I. units (second, meters, Newtons, ...)
Angles are in degrees

endheader
time	SC_y	SC_z	SC_x	AC_y	AC_z	AC_x	GH_y	GH_z	GH_yy	EL_x	PS_y
       0.0              -21.41          19.23          38.58          62.97         -9.964         -13.87         -77.05         -2.626          122.8          68.57          152.3
   0.01851              -21.41          19.23          38.58          62.97         -9.964         -13.87         -77.04         -2.622          122.7          68.58          152.3
   0.03702              -21.42          19.22          38.58          62.98         -9.964         -13.87         -77.03         -2.617          122.7          68.58          152.3
   0.05554              -21.43          19.22          38.59          62.98         -9.964         -13.87         -77.01         -2.613          122.7          68.59          152.3
   0.07405              -21.43          19.22          38.59          62.98         -9.964         -13.86          -77.0         -2.608          122.6           68.6          152.2
   0.09256              -21.44          19.21           38.6          62.98         -9.964         -13.86         -76.99         -2.603          122.6           68.6          152.2
    0.1111              -21.45          19.21           38.6          62.98         -9.964         -13.86         -76.97         -2.598          122.6          68.61          152.2
    0.1296              -21.45          19.21           38.6          62.98         -9.964         -13.86         -76.96         -2.592          122.5          68.62          152.2
    0.1481              -21.46           19.2          38.61          62.98         -9.964         -13.86         -76.94         -2.586          122.5          68.63          152.2
    0.1666              -21.47           19.2          38.61          62.98         -9.964         -13.85         -76.92         -2.579          122.4          68.64          152.2
    0.1851              -21.48          19.19          38.62          62.98         -9.964         -13.85          -76.9         -2.572          122.4          68.65          152.2
    0.2036              -21.49          19.19          38.62          62.98         -9.964         -13.85         -76.88         -2.565          122.3          68.66          152.1
    0.2221               -21.5          19.18          38.63          62.98         -9.964         -13.85         -76.86         -2.556          122.2          68.67          152.1
    0.2407              -21.52          19.18          38.64          62.98         -9.964         -13.84         -76.83         -2.548          122.2          68.69          152.1
    0.2592              -21.53          19.17          38.64          62.98         -9.964         -13.84          -76.8         -2.538          122.1           68.7          152.1
    0.2777              -21.54          19.17          38.65          62.98         -9.964         -13.84         -76.77         -2.527          122.0          68.72          152.1
    0.2962              -21.56          19.16          38.66          62.98         -9.964         -13.83         -76.74         -2.516          121.9          68.73          152.0
    0.3147              -21.58          19.15          38.67          62.98         -9.964         -13.83         -76.71         -2.504          121.8          68.75          152.0
    0.3332              -21.59          19.14          38.68          62.98         -9.964         -13.82         -76.67          -2.49          121.7          68.77          152.0
    0.3517              -21.61          19.13          38.69          62.98         -9.964         -13.82         -76.63         -2.475          121.6          68.79          152.0
    0.3702              -21.64          19.12           38.7          62.98         -9.964         -13.81         -76.58         -2.459          121.5          68.82          151.9
    0.3887              -21.66          19.11          38.72          62.98         -9.964          -13.8         -76.53         -2.441          121.3          68.84          151.9
    0.4073              -21.69           19.1          38.73          62.98         -9.964          -13.8         -76.48         -2.422          121.2          68.87          151.8
    0.4258              -21.72          19.08          38.75          62.98         -9.964         -13.79         -76.42           -2.4          121.0          68.91          151.8
    0.4443              -21.75          19.07          38.77          62.98         -9.964         -13.78         -76.35         -2.376          120.8          68.94          151.7
    0.4628              -21.79          19.05          38.79          62.98         -9.965         -13.77         -76.27         -2.348          120.6          68.98          151.7
    0.4813              -21.83          19.03          38.81          62.98         -9.965         -13.76         -76.19         -2.318          120.4          69.03          151.6
